<svg xmlns="http://www.w3.org/2000/svg" version="1.1" xmlns:xlink="http://www.w3.org/1999/xlink" xmlns:svgjs="http://svgjs.com/svgjs" width="1920" height="1080" preserveAspectRatio="none" viewBox="0 0 1920 1080"><g mask="url(&quot;#SvgjsMask1150&quot;)" fill="none"><rect width="1920" height="1080" x="0" y="0" fill="#0e2a47"></rect><path d="M6 1080L1086 0L1885.5 0L805.5 1080z" fill="url(#SvgjsLinearGradient1151)"></path><path d="M640.6 1080L1720.6 0L2080.6 0L1000.6 1080z" fill="url(#SvgjsLinearGradient1151)"></path><path d="M1895 1080L815 0L-40 0L1040 1080z" fill="url(#SvgjsLinearGradient1152)"></path><path d="M1250.4 1080L170.4000000000001 0L-279.5999999999999 0L800.4000000000001 1080z" fill="url(#SvgjsLinearGradient1152)"></path><path d="M1338.8196003600171 1080L1920 498.81960036001715L1920 1080z" fill="url(#SvgjsLinearGradient1151)"></path><path d="M0 1080L581.1803996399829 1080L 0 498.81960036001715z" fill="url(#SvgjsLinearGradient1152)"></path></g><defs><mask id="SvgjsMask1150"><rect width="1920" height="1080" fill="#ffffff"></rect></mask><linearGradient x1="0%" y1="100%" x2="100%" y2="0%" id="SvgjsLinearGradient1151"><stop stop-color="rgba(15, 70, 185, 0.2)" offset="0"></stop><stop stop-opacity="0" stop-color="rgba(15, 70, 185, 0.2)" offset="0.66"></stop></linearGradient><linearGradient x1="100%" y1="100%" x2="0%" y2="0%" id="SvgjsLinearGradient1152"><stop stop-color="rgba(15, 70, 185, 0.2)" offset="0"></stop><stop stop-opacity="0" stop-color="rgba(15, 70, 185, 0.2)" offset="0.66"></stop></linearGradient></defs></svg>